<svg width="196" height="294" viewBox="0 0 196 294" fill="none" xmlns="http://www.w3.org/2000/svg">
<path fill-rule="evenodd" clip-rule="evenodd" d="M116.519 147.645C107.918 150.648 97.9522 152.15 86.6211 152.15H39.5222H0V293.447H39.5222V183.686H86.6211C104.369 183.686 120 181.433 133.515 176.928C147.167 172.287 158.567 165.87 167.713 157.679C176.997 149.488 184.027 139.727 188.805 128.396C193.584 117.065 195.973 104.573 195.973 90.9215C195.973 77.1331 193.72 64.6416 189.215 53.4471C184.846 42.2526 178.157 32.6962 169.147 24.7782C160.137 16.8601 148.737 10.785 134.949 6.55291C121.297 2.1843 105.188 0 86.6211 0H0V31.3311H39.5222H86.6211C110.102 31.3311 127.577 36.587 139.044 47.099C150.648 57.6109 156.45 72.2184 156.45 90.9215C156.45 99.9317 154.949 108.191 151.945 115.7C148.942 123.208 144.437 129.693 138.43 135.154C132.56 140.478 125.256 144.642 116.519 147.645Z" fill="#1D7870"/>
</svg>
