<svg width="1767" height="302" viewBox="0 0 1767 302" fill="none" xmlns="http://www.w3.org/2000/svg">
<g filter="url(#filter0_d_162_120)">
<path d="M772.073 150.102C772.073 172.082 768.592 192.287 761.629 210.717C754.667 229.01 744.837 244.778 732.141 258.02C719.445 271.263 704.155 281.57 686.271 288.942C668.523 296.177 648.865 299.795 627.295 299.795C605.725 299.795 586.066 296.177 568.319 288.942C550.571 281.57 535.349 271.263 522.653 258.02C509.957 244.778 500.127 229.01 493.165 210.717C486.203 192.287 482.721 172.082 482.721 150.102C482.721 128.123 486.203 107.986 493.165 89.6928C500.127 71.2628 509.957 55.4266 522.653 42.1843C535.349 28.8055 550.571 18.43 568.319 11.058C586.066 3.68601 605.725 0 627.295 0C648.865 0 668.523 3.68601 686.271 11.058C704.155 18.43 719.445 28.8055 732.141 42.1843C744.837 55.4266 754.667 71.2628 761.629 89.6928C768.592 107.986 772.073 128.123 772.073 150.102ZM731.322 150.102C731.322 132.082 728.865 115.904 723.95 101.57C719.035 87.2355 712.073 75.1536 703.063 65.3242C694.052 55.3584 683.131 47.7133 670.298 42.3891C657.465 37.0649 643.131 34.4027 627.295 34.4027C611.595 34.4027 597.329 37.0649 584.496 42.3891C571.663 47.7133 560.674 55.3584 551.527 65.3242C542.517 75.1536 535.554 87.2355 530.639 101.57C525.725 115.904 523.267 132.082 523.267 150.102C523.267 168.123 525.725 184.3 530.639 198.635C535.554 212.833 542.517 224.915 551.527 234.881C560.674 244.71 571.663 252.287 584.496 257.611C597.329 262.799 611.595 265.392 627.295 265.392C643.131 265.392 657.465 262.799 670.298 257.611C683.131 252.287 694.052 244.71 703.063 234.881C712.073 224.915 719.035 212.833 723.95 198.635C728.865 184.3 731.322 168.123 731.322 150.102Z" fill="#E2F0EF"/>
<path d="M1180.21 296.724H1140.48V3.27646H1180.21V296.724Z" fill="#E2F0EF"/>
<path d="M1657.81 179.795V296.724H1618.08V179.795L1510.57 3.27646H1545.38C1548.93 3.27646 1551.73 4.16383 1553.78 5.93857C1555.83 7.5768 1557.6 9.7611 1559.1 12.4915L1626.27 126.553C1628.73 131.331 1630.98 135.836 1633.03 140.068C1635.08 144.164 1636.85 148.328 1638.35 152.56C1639.85 148.328 1641.56 144.164 1643.47 140.068C1645.38 135.836 1647.5 131.331 1649.82 126.553L1716.78 12.4915C1718.01 10.1707 1719.72 8.05462 1721.9 6.14336C1724.09 4.23209 1726.88 3.27646 1730.3 3.27646H1765.31L1657.81 179.795Z" fill="#E2F0EF"/>
<path fill-rule="evenodd" clip-rule="evenodd" d="M358.578 141.297C349.841 144.027 340.353 145.392 328.885 145.392V176.519C331.615 177.884 334.141 180.205 336.462 183.481L412.639 288.328C416.052 293.925 421.376 296.724 428.612 296.724H463.834L378.237 180.205C374.551 174.744 370.182 170.58 365.131 167.713C376.462 165.119 386.564 161.297 395.438 156.246C404.448 151.195 412.025 145.119 418.168 138.02C424.448 130.785 429.226 122.662 432.503 113.652C435.779 104.642 437.417 94.9488 437.417 84.5734C437.417 72.1502 435.301 60.9556 431.069 50.9898C426.837 40.8874 420.284 32.2867 411.411 25.1877C402.673 18.0887 391.547 12.6963 378.032 9.01024C364.516 5.18772 348.475 3.27646 329.909 3.27646H246.974V296.724H286.496V175.137V174.266V145.392V34.6075H329.909C352.844 34.6075 370.045 39.0444 381.513 47.9181C392.981 56.7918 398.714 69.9659 398.714 87.4403C398.714 96.041 397.213 103.891 394.209 110.99C391.206 118.089 386.701 124.232 380.694 129.42C374.824 134.471 367.452 138.43 358.578 141.297Z" fill="#E2F0EF"/>
<path fill-rule="evenodd" clip-rule="evenodd" d="M1493.63 268.259V155.631H1457.79V185.939V188.78V250.444C1447.69 255.904 1437.31 260.205 1426.67 263.345C1416.15 266.348 1404.07 267.85 1390.42 267.85C1373.08 267.85 1357.45 265.188 1343.53 259.863C1329.6 254.539 1317.72 246.826 1307.89 236.724C1298.2 226.485 1290.69 214.13 1285.37 199.659C1280.18 185.051 1277.59 168.532 1277.59 150.102C1277.59 132.355 1280.11 116.382 1285.16 102.184C1290.21 87.8498 1297.45 75.6997 1306.87 65.7338C1316.29 55.6314 1327.69 47.9181 1341.07 42.5939C1354.45 37.1331 1369.4 34.4027 1385.91 34.4027C1397.25 34.4027 1407.01 35.2901 1415.2 37.0649C1423.53 38.8396 1430.69 41.0239 1436.7 43.6178C1442.84 46.0751 1448.03 48.6689 1452.26 51.3993C1456.49 54.1297 1460.25 56.4505 1463.53 58.3618C1466.94 60.4096 1470.01 61.0922 1472.74 60.4096C1475.61 59.5904 1477.93 57.8157 1479.7 55.0853L1490.97 37.0649C1484.69 31.3311 1477.93 26.2116 1470.69 21.7065C1463.46 17.0649 1455.61 13.1741 1447.14 10.0341C1438.68 6.75769 1429.46 4.30035 1419.5 2.66212C1409.53 0.887373 1398.75 0 1387.14 0C1364.21 0 1343.46 3.61775 1324.89 10.8533C1306.32 18.0888 1290.56 28.3277 1277.59 41.57C1264.62 54.6758 1254.58 70.4437 1247.48 88.8737C1240.52 107.304 1237.04 127.713 1237.04 150.102C1237.04 172.218 1240.66 192.491 1247.89 210.921C1255.13 229.352 1265.44 245.188 1278.82 258.43C1292.33 271.536 1308.58 281.775 1327.55 289.147C1346.53 296.382 1367.83 300 1391.44 300C1411.38 300 1429.67 297.406 1446.32 292.218C1463.12 286.894 1478.88 278.908 1493.63 268.259Z" fill="#E2F0EF"/>
<path fill-rule="evenodd" clip-rule="evenodd" d="M117.519 150.922C108.918 153.925 98.9522 155.427 87.6211 155.427H40.5222H1V296.724H40.5222V186.962H87.6211C105.369 186.962 121 184.71 134.515 180.205C148.167 175.563 159.567 169.147 168.713 160.956C177.997 152.765 185.027 143.003 189.805 131.672C194.584 120.341 196.973 107.85 196.973 94.198C196.973 80.4096 194.72 67.9181 190.215 56.7236C185.846 45.529 179.157 35.9727 170.147 28.0546C161.136 20.1365 149.737 14.0614 135.949 9.82937C122.297 5.46076 106.188 3.27646 87.6211 3.27646H1V34.6075H40.5222H87.6211C111.102 34.6075 128.577 39.8635 140.044 50.3754C151.648 60.8874 157.45 75.4949 157.45 94.198C157.45 103.208 155.949 111.468 152.945 118.976C149.942 126.485 145.437 132.969 139.43 138.43C133.56 143.754 126.256 147.918 117.519 150.922Z" fill="#E2F0EF"/>
<path fill-rule="evenodd" clip-rule="evenodd" d="M1072.8 210.102C1079.76 192.082 1083.25 172.082 1083.25 150.102C1083.25 128.123 1079.76 108.123 1072.8 90.1024C1065.84 72.0819 1056.01 56.6553 1043.31 43.8225C1030.62 30.8533 1015.33 20.8874 997.444 13.9249C979.696 6.82595 960.038 3.27646 938.468 3.27646H828.912V35.4266H868.638H938.468C954.304 35.4266 968.638 38.0205 981.471 43.2082C994.304 48.3959 1005.23 55.9044 1014.24 65.7338C1023.25 75.5631 1030.21 87.5768 1035.12 101.775C1040.04 115.973 1042.5 132.082 1042.5 150.102C1042.5 168.123 1040.04 184.232 1035.12 198.43C1030.21 212.628 1023.25 224.642 1014.24 234.471C1005.23 244.164 994.304 251.604 981.471 256.792C968.638 261.98 954.304 264.573 938.468 264.573H868.638H828.912V296.724H938.468C960.038 296.724 979.696 293.242 997.444 286.28C1015.33 279.181 1030.62 269.215 1043.31 256.382C1056.01 243.549 1065.84 228.123 1072.8 210.102Z" fill="#E2F0EF"/>
</g>
<defs>
<filter id="filter0_d_162_120" x="0" y="0" width="1766.31" height="302" filterUnits="userSpaceOnUse" color-interpolation-filters="sRGB">
<feFlood flood-opacity="0" result="BackgroundImageFix"/>
<feColorMatrix in="SourceAlpha" type="matrix" values="0 0 0 0 0 0 0 0 0 0 0 0 0 0 0 0 0 0 127 0" result="hardAlpha"/>
<feOffset dy="1"/>
<feGaussianBlur stdDeviation="0.5"/>
<feComposite in2="hardAlpha" operator="out"/>
<feColorMatrix type="matrix" values="0 0 0 0 0 0 0 0 0 0 0 0 0 0 0 0 0 0 0.5 0"/>
<feBlend mode="normal" in2="BackgroundImageFix" result="effect1_dropShadow_162_120"/>
<feBlend mode="normal" in="SourceGraphic" in2="effect1_dropShadow_162_120" result="shape"/>
</filter>
</defs>
</svg>
